<svg width="160" height="111" viewBox="0 0 160 111" fill="none" xmlns="http://www.w3.org/2000/svg">
<path d="M1.91426 6.66251C1.81547 5.50015 2.18228 4.34614 2.93404 3.45424C3.68579 2.56235 4.76093 2.0056 5.92303 1.90643L26.4631 0.15599C43.3675 -1.28531 55.8208 7.33353 57.1532 23.0131C58.4857 38.6926 47.6771 49.2935 30.7727 50.7338L10.2336 52.4842C9.07163 52.5833 7.91784 52.2167 7.02609 51.4649C6.13434 50.7132 5.57767 49.6379 5.47853 48.4757C5.47853 48.4757 4.98027 32.2936 4.52027 26.9007C4.08714 21.8406 1.91426 6.66251 1.91426 6.66251ZM28.9182 37.5005C36.0694 36.8915 40.6189 32.2099 39.9604 24.4782C39.3019 16.7464 34.0258 12.9023 26.8766 13.5123L21.8671 13.9393C21.5854 13.9626 21.311 14.0413 21.0597 14.1709C20.8084 14.3004 20.5851 14.4783 20.4027 14.6943C20.2202 14.9103 20.0822 15.1602 19.9965 15.4297C19.9107 15.6991 19.879 15.9829 19.9031 16.2646L21.5808 35.9672C21.6042 36.249 21.683 36.5235 21.8127 36.7749C21.9423 37.0262 22.1203 37.2495 22.3363 37.432C22.5524 37.6145 22.8023 37.7525 23.0717 37.8383C23.3412 37.924 23.6249 37.9557 23.9067 37.9316L28.9182 37.5005Z" fill="#EE3A46"/>
<path d="M72.4637 1.83302L80.7428 2.61053C81.3177 2.66461 81.8764 2.83144 82.387 3.1015C82.8975 3.37156 83.3498 3.73955 83.7181 4.18446C84.0864 4.62937 84.3635 5.14249 84.5336 5.69452C84.7036 6.24655 84.7633 6.82667 84.7092 7.40176C84.7092 7.40176 83.9494 22.5612 83.4863 27.491C82.9694 33.007 80.7841 49.1818 80.7841 49.1818C80.6749 50.3431 80.109 51.4134 79.2109 52.1574C78.3127 52.9014 77.1559 53.258 75.9949 53.149L67.7158 52.3715C66.5545 52.2623 65.4841 51.6961 64.7401 50.7976C63.9961 49.8991 63.6394 48.7418 63.7484 47.5803C63.7484 47.5803 64.8689 31.0984 65.3786 25.6713C65.8479 20.6536 67.6765 5.80021 67.6765 5.80021C67.7855 4.63923 68.351 3.56907 69.2488 2.8251C70.1465 2.08113 71.3029 1.72427 72.4637 1.83302Z" fill="#EE3A46"/>
<path d="M126.452 41.4212L107.246 43.1789L105.483 49.3949C105.241 50.2492 104.746 51.0102 104.063 51.5779C103.38 52.1455 102.542 52.4932 101.658 52.5752L94.0302 53.2731C93.3028 53.3398 92.5703 53.2242 91.8987 52.9367C91.2272 52.6493 90.6378 52.199 90.1839 51.6267C89.7299 51.0543 89.4257 50.3778 89.2986 49.6584C89.1715 48.939 89.2256 48.1992 89.456 47.5059L97.4477 26.0084L103.889 4.04361C104.158 3.23199 104.659 2.51665 105.329 1.9852C105.999 1.45374 106.809 1.12923 107.661 1.05142L118.684 0.0423064C119.536 -0.0355323 120.392 0.136606 121.147 0.537656C121.902 0.938707 122.525 1.55128 122.937 2.30041L132.498 22.064L145.031 42.4189C145.383 43.0589 145.571 43.7765 145.576 44.507C145.582 45.2375 145.405 45.9578 145.063 46.603C144.72 47.2482 144.222 47.7979 143.614 48.2025C143.006 48.607 142.307 48.8537 141.579 48.9203L133.662 49.644C132.778 49.7251 131.889 49.5362 131.114 49.1023C130.339 48.6683 129.714 48.0098 129.32 47.2133L126.452 41.4212ZM119.901 28.0918L115.87 19.9444C115.767 19.7406 115.605 19.5725 115.406 19.4619C115.206 19.3512 114.978 19.3032 114.75 19.3241C114.523 19.3449 114.308 19.4337 114.131 19.5788C113.955 19.7239 113.827 19.9187 113.763 20.1378L111.274 28.8817C111.224 29.0589 111.218 29.2456 111.256 29.4256C111.295 29.6057 111.376 29.7737 111.493 29.9154C111.611 30.057 111.761 30.168 111.931 30.2388C112.101 30.3097 112.285 30.3382 112.469 30.322L118.994 29.7244C119.176 29.7061 119.352 29.6439 119.505 29.5431C119.658 29.4422 119.785 29.3058 119.874 29.1454C119.963 28.985 120.012 28.8054 120.017 28.6219C120.022 28.4384 119.982 28.2566 119.901 28.0918Z" fill="#EE3A46"/>
<path d="M21.1911 95.6383L19.7315 95.4667C19.3145 95.4177 18.8952 95.5364 18.5657 95.7966C18.2361 96.0568 18.0234 96.4372 17.9742 96.8542L17.019 104.972C16.9258 105.763 16.522 106.485 15.8964 106.979C15.2708 107.473 14.4747 107.698 13.6832 107.605L2.65442 106.304C1.86286 106.211 1.14072 105.807 0.646797 105.182C0.152873 104.556 -0.072403 103.76 0.0205023 102.968C0.0205023 102.968 3.12063 85.1512 3.8246 79.143C4.42829 74.0406 5.25113 58.5203 5.25113 58.5203C5.34436 57.7286 5.74818 57.0064 6.37377 56.5126C6.99935 56.0187 7.79545 55.7936 8.58695 55.8868L29.8682 58.3962C43.9092 60.0505 51.9733 68.447 50.5995 80.1139C49.7435 87.3876 45.6438 92.4548 39.2285 94.8391L45.3575 106.603C46.4728 108.743 44.7372 111.256 42.3411 110.978L31.425 109.691C30.937 109.634 30.4707 109.458 30.0666 109.178C29.6626 108.899 29.3332 108.524 29.1074 108.088L23.4932 97.2316C23.2686 96.7983 22.9414 96.4265 22.5401 96.1488C22.1389 95.871 21.6757 95.6958 21.1911 95.6383ZM27.2508 71.3803L22.3189 70.7992C21.9846 70.7599 21.6483 70.855 21.3841 71.0636C21.1199 71.2723 20.9493 71.5773 20.9099 71.9117L19.8163 81.2016C19.7772 81.5351 19.8717 81.8706 20.0791 82.1347C20.2866 82.3987 20.5901 82.5699 20.9234 82.6108L25.8553 83.1908C30.536 83.7419 33.0303 81.7723 33.4624 78.0998C33.8945 74.4273 31.9263 71.9282 27.2456 71.3772L27.2508 71.3803Z" fill="#EE3A46"/>
<path d="M95.2191 100.705L94.8366 107.59C94.7923 108.385 94.4337 109.131 93.8397 109.663C93.2457 110.194 92.465 110.468 91.6693 110.424L55.5396 108.416C54.7448 108.372 54 108.014 53.4686 107.421C52.9372 106.828 52.6626 106.049 52.7052 105.254C52.7052 105.254 54.3198 88.7752 54.6248 83.2829C54.9401 77.6056 55.1871 60.5727 55.1871 60.5727C55.2314 59.7767 55.59 59.031 56.184 58.4995C56.778 57.9681 57.5587 57.6944 58.3545 57.7387L93.5434 59.6938C94.3394 59.7381 95.0852 60.0969 95.6168 60.6912C96.1484 61.2855 96.4221 62.0666 96.3779 62.8628L95.9954 69.7488C95.9508 70.5445 95.5921 71.29 94.9982 71.8212C94.4042 72.3525 93.6236 72.626 92.8281 72.5818L72.9361 71.4734C72.5377 71.4511 72.1467 71.588 71.8491 71.854C71.5515 72.12 71.3718 72.4934 71.3494 72.8919L71.1861 75.8211C71.1643 76.2199 71.3017 76.6111 71.5679 76.9088C71.8342 77.2066 72.2077 77.3865 72.6064 77.4092L89.5294 78.349C90.3253 78.3933 91.0709 78.7519 91.6025 79.346C92.134 79.9401 92.4079 80.721 92.3639 81.517L92.0135 87.8239C91.9917 88.2181 91.8925 88.6042 91.7215 88.96C91.5505 89.3158 91.3111 89.6344 91.017 89.8977C90.7229 90.161 90.3798 90.3637 90.0073 90.4943C89.6348 90.625 89.2403 90.6809 88.8462 90.659L71.9231 89.7181C71.5242 89.6961 71.133 89.8334 70.8352 90.0997C70.5375 90.3661 70.3577 90.7398 70.3353 91.1387L70.1286 94.7916C70.1175 94.9892 70.1455 95.187 70.2109 95.3737C70.2763 95.5604 70.3779 95.7325 70.5098 95.88C70.6417 96.0274 70.8013 96.1475 70.9796 96.2332C71.1579 96.319 71.3514 96.3687 71.5489 96.3797L92.3805 97.5377C92.7748 97.5591 93.161 97.658 93.5171 97.8288C93.8732 97.9996 94.1922 98.2388 94.4558 98.5329C94.7194 98.827 94.9225 99.1702 95.0534 99.5428C95.1844 99.9155 95.2407 100.31 95.2191 100.705Z" fill="#EE3A46"/>
<path d="M146.699 95.0779L147.576 101.918C147.626 102.31 147.599 102.708 147.496 103.089C147.392 103.469 147.215 103.826 146.973 104.139C146.732 104.451 146.432 104.713 146.089 104.909C145.747 105.105 145.369 105.232 144.977 105.282L109.086 109.885C108.296 109.986 107.497 109.769 106.866 109.282C106.236 108.794 105.824 108.076 105.723 107.286C105.723 107.286 103.985 88.6748 103.189 82.4712C102.563 77.5787 100.033 62.9021 100.033 62.9021C99.932 62.1113 100.149 61.3127 100.636 60.6819C101.124 60.051 101.841 59.6395 102.632 59.5376L137.588 55.0525C137.98 55.0023 138.377 55.0297 138.758 55.1332C139.139 55.2367 139.495 55.4141 139.808 55.6555C140.12 55.8969 140.382 56.1974 140.578 56.5399C140.774 56.8824 140.901 57.2602 140.951 57.6518L141.827 64.4912C141.878 64.8828 141.85 65.2805 141.747 65.6615C141.644 66.0425 141.466 66.3995 141.225 66.7119C140.984 67.0243 140.683 67.2861 140.341 67.4824C139.998 67.6786 139.62 67.8054 139.229 67.8556L119.47 70.3898C119.074 70.4405 118.714 70.6466 118.47 70.9627C118.226 71.2787 118.117 71.6788 118.168 72.0751L118.541 74.9845C118.566 75.1808 118.629 75.3702 118.727 75.5419C118.826 75.7136 118.957 75.8642 119.113 75.9852C119.27 76.1062 119.449 76.1952 119.639 76.247C119.83 76.2988 120.03 76.3125 120.226 76.2873L137.037 74.1326C137.429 74.0823 137.826 74.1096 138.207 74.213C138.588 74.3164 138.945 74.4938 139.257 74.7352C139.57 74.9766 139.832 75.2772 140.028 75.6198C140.224 75.9624 140.351 76.3403 140.401 76.7319L141.204 82.9965C141.305 83.7872 141.088 84.5858 140.601 85.2166C140.114 85.8475 139.396 86.2591 138.605 86.3609L121.794 88.5166C121.598 88.5415 121.408 88.6049 121.237 88.7031C121.065 88.8013 120.914 88.9324 120.793 89.089C120.672 89.2455 120.583 89.4244 120.531 89.6154C120.48 89.8064 120.466 90.0057 120.491 90.2019L120.957 93.831C121.007 94.2272 121.213 94.587 121.529 94.8313C121.845 95.0756 122.245 95.1844 122.642 95.1338L143.337 92.4797C144.127 92.3783 144.925 92.5951 145.556 93.0823C146.187 93.5696 146.598 94.2874 146.699 95.0779Z" fill="#EE3A46"/>
<path d="M155.304 104.387C157.676 104.387 159.599 102.464 159.599 100.092C159.599 97.7189 157.676 95.7955 155.304 95.7955C152.932 95.7955 151.009 97.7189 151.009 100.092C151.009 102.464 152.932 104.387 155.304 104.387Z" fill="#EE3A46"/>
</svg>
